<?xml version="1.0" standalone="no"?>
<!DOCTYPE svg PUBLIC "-//W3C//DTD SVG 20010904//EN"
 "http://www.w3.org/TR/2001/REC-SVG-20010904/DTD/svg10.dtd">
<svg version="1.0" xmlns="http://www.w3.org/2000/svg"
 width="98.000000pt" height="55.000000pt" viewBox="0 0 98.000000 55.000000"
 preserveAspectRatio="xMidYMid meet">

<g transform="translate(0.000000,55.000000) scale(0.100000,-0.100000)"
fill="#000000" stroke="none">
<path d="M139 535 c-34 -18 -39 -33 -94 -254 -40 -159 -44 -188 -34 -213 24
-59 18 -58 445 -58 l392 0 11 33 c6 17 35 133 66 256 43 173 53 226 44 237
-17 21 -792 20 -830 -1z m271 -32 c-1 -23 -25 -28 -143 -28 -70 0 -127 2 -127
6 0 22 33 29 147 29 68 0 123 -3 123 -7z m330 -2 c0 -4 -11 -6 -25 -3 -14 2
-25 6 -25 8 0 2 11 4 25 4 14 0 25 -4 25 -9z m160 7 c0 -2 -6 -23 -14 -48 -12
-40 -17 -45 -46 -48 -26 -3 -31 0 -27 12 3 8 9 31 13 50 6 33 9 36 40 36 19 0
34 -1 34 -2z m-672 -109 c-2 -6 -7 -10 -11 -10 -4 1 -27 1 -52 1 -25 0 -45 5
-45 10 0 6 25 10 56 10 35 0 54 -4 52 -11z m-18 -91 c0 -9 -4 -28 -9 -41 -9
-22 -17 -26 -65 -29 -56 -3 -56 -3 -56 25 0 51 13 62 74 62 46 0 56 -3 56 -17z
m364 -27 l12 -43 13 41 c10 36 16 41 40 41 28 0 29 -1 21 -36 -5 -19 -11 -38
-14 -41 -3 -3 -31 -6 -62 -7 -60 -1 -66 3 -78 59 -6 28 -5 30 24 30 28 0 32
-4 44 -44z m268 13 c-7 -50 -15 -57 -77 -58 -56 -1 -59 0 -72 31 -19 46 -17
53 17 53 26 0 31 -5 41 -41 l13 -41 13 44 c11 39 16 44 40 42 25 -1 28 -4 25
-30z m-500 -15 l12 -41 11 38 c9 34 15 39 42 42 31 3 31 3 23 -31 -11 -49 -14
-52 -52 -50 -18 1 -45 2 -60 2 -20 1 -29 8 -37 32 -16 46 -14 49 19 49 26 0
31 -5 42 -41z m-170 -122 c4 -6 31 -10 63 -8 l58 3 -8 -49 c-4 -26 -9 -51 -12
-55 -2 -5 -47 -8 -99 -8 -81 0 -97 3 -114 20 -22 22 -25 43 -10 86 10 28 12
29 63 25 28 -2 55 -8 59 -14z m211 16 c-13 -2 -35 -2 -50 0 -16 2 -5 4 22 4
28 0 40 -2 28 -4z m230 0 c-13 -2 -35 -2 -50 0 -16 2 -5 4 22 4 28 0 40 -2 28
-4z m180 0 c-13 -2 -35 -2 -50 0 -16 2 -5 4 22 4 28 0 40 -2 28 -4z m-423 -35
c0 -5 -9 -8 -20 -8 -25 0 -26 -16 -2 -29 15 -9 15 -10 -5 -11 -29 0 -30 -16
-2 -23 29 -8 14 -27 -22 -27 -32 0 -34 3 -18 51 6 19 12 39 14 44 3 11 55 14
55 3z m60 -30 c0 -4 5 -8 10 -8 6 0 10 8 10 18 0 21 9 34 20 27 11 -7 -13 -98
-27 -102 -6 -2 -16 11 -23 29 l-13 33 -6 -29 c-3 -16 -12 -31 -18 -34 -19 -6
-18 -1 14 98 4 12 7 12 19 -4 8 -11 14 -23 14 -28z m140 30 c0 -5 -7 -8 -15
-8 -10 0 -17 -14 -21 -40 -6 -39 -19 -58 -31 -46 -4 3 -1 22 5 42 8 28 8 36
-4 41 -7 3 -12 8 -10 12 6 9 76 8 76 -1z m167 -94 c-3 -3 -15 1 -26 8 -18 11
-23 11 -31 -2 -5 -8 -12 -11 -16 -7 -8 8 17 58 45 91 15 17 16 15 24 -34 5
-28 7 -54 4 -56z m58 66 c-6 -36 -5 -40 15 -40 28 0 21 -24 -9 -28 -44 -7 -51
2 -34 49 24 73 39 82 28 19z m-158 -15 c-5 -52 -15 -69 -24 -37 -7 28 -19 28
-26 1 -3 -12 -10 -18 -15 -15 -6 3 -3 24 5 51 13 37 20 45 39 45 23 0 24 -3
21 -45z"/>
<path d="M706 101 c-4 -7 -5 -15 -2 -18 9 -9 19 4 14 18 -4 11 -6 11 -12 0z"/>
<path d="M600 115 c0 -9 5 -15 11 -13 6 2 11 8 11 13 0 5 -5 11 -11 13 -6 2
-11 -4 -11 -13z"/>
</g>
</svg>
